<svg id="Capa_1" enable-background="new 0 0 512 512" height="512" viewBox="0 0 512 512" width="512" xmlns="http://www.w3.org/2000/svg"><path d="m363.176 169.13c-7.721 28.578-33.982 56.52-107.179 56.52-73.219 0-99.824-27.959-107.894-56.546-36.045-1.065-64.356-9.646-86.281-21.034-.811 2.347-35.564 104.263 27.828 153.957 0 0 2.839 78.087 51.595 108.341 0 0 38.656 94.116 114.751 94.116s114.751-94.116 114.751-94.116c48.757-30.254 51.595-108.341 51.595-108.341 63.355-49.665 28.679-151.492 27.829-153.955-22.071 11.464-50.606 20.088-86.995 21.058z" fill="#ad5e2e"/><g fill="#a05528"><path d="m450.172 148.073c-22.072 11.462-50.607 20.087-86.996 21.057-2.353 8.71-6.433 17.359-13.034 25.177 2.018.074 4.066.12 6.165.12 43.033 0 75.533-10.553 99.63-24.293-2.645-12.911-5.527-21.372-5.765-22.061z"/><path d="m61.822 148.07c-.227.657-3.115 9.124-5.765 22.061 24.097 13.741 56.599 24.296 99.636 24.296 1.965 0 3.883-.043 5.777-.107-6.712-7.83-10.905-16.493-13.368-25.216-36.044-1.065-64.355-9.646-86.28-21.034z"/><path d="m255.997 477.432c-47.144 0-82.393-24.729-105.559-48.836 15.583 27.364 50.918 75.889 105.559 75.889 54.64 0 89.975-48.524 105.558-75.888-23.166 24.106-58.415 48.835-105.558 48.835z"/></g><path d="m256 114.801s20.76 54.426 100.306 54.426c67.801 0 109.487-26.185 133.286-49.778 10.983-10.887 2.614-29.695-12.813-28.619-73.24 5.107-84.965-61.871-138.416-79.498-56.22-18.541-82.363 36.483-82.363 36.483s-26.143-55.024-82.364-36.483c-53.45 17.627-65.175 84.605-138.416 79.498-15.427-1.076-23.796 17.732-12.813 28.619 23.799 23.593 65.486 49.778 133.286 49.778 79.547.001 100.307-54.426 100.307-54.426z" fill="#dd8858"/><path d="m489.593 101.414c-23.799 23.593-65.486 49.778-133.286 49.778-59.59 0-86.19-40.665-95.786-61.068-1.793-3.813-7.247-3.813-9.04 0-9.596 20.403-36.196 61.068-95.786 61.068-67.801 0-109.487-26.185-133.286-49.778-.923-.916-1.698-1.891-2.356-2.901-3.877 6.187-3.82 14.814 2.356 20.937 23.799 23.593 65.486 49.778 133.286 49.778 79.546 0 100.306-54.426 100.306-54.426s20.76 54.426 100.306 54.426c67.801 0 109.487-26.185 133.286-49.778 6.176-6.122 6.232-14.749 2.356-20.937-.658 1.011-1.433 1.986-2.356 2.901z" fill="#ca6d36"/><path d="m460.566 212.071c-4.177-.201-7.651 3.043-7.827 7.189-1.44 33.902-13.227 59.759-35.032 76.854-1.742 1.365-2.793 3.43-2.874 5.641-.027.741-3.212 74.407-48.048 102.228-1.34.832-2.386 2.069-2.987 3.525-.369.894-37.711 89.462-107.802 89.462s-107.433-88.567-107.8-89.457c-.6-1.462-1.646-2.697-2.989-3.53-13.09-8.121-23.902-20.975-32.138-38.201-1.791-3.745-6.276-5.328-10.022-3.538-3.744 1.791-5.328 6.277-3.538 10.022 9.081 18.994 21.102 33.514 35.754 43.195 2.953 6.593 12.567 26.556 28.996 46.713 26.566 32.597 58.289 49.826 91.738 49.826 33.45 0 65.171-17.229 91.737-49.826 16.429-20.158 26.043-40.119 28.996-46.712 44.306-29.257 51.746-93.794 52.919-109.683 23.714-19.885 36.53-48.757 38.107-85.881.175-4.147-3.044-7.65-7.19-7.827z"/><path d="m499.897 97.468c-4.21-9.293-13.492-14.852-23.639-14.133-40.076 2.782-60.046-17.781-81.195-39.564-15.204-15.659-30.927-31.853-54.345-39.576-32.338-10.664-55.624 1.011-69.463 12.681-6.589 5.557-11.652 11.6-15.254 16.622-3.603-5.023-8.666-11.066-15.254-16.622-13.84-11.671-37.127-23.343-69.463-12.681-17.152 5.658-29.83 16.017-37.873 23.316-3.073 2.789-3.304 7.541-.515 10.615 2.789 3.073 7.541 3.304 10.615.515 11.325-10.277 21.342-16.498 32.48-20.171 49.105-16.197 72.269 30.589 73.223 32.571 2.663 5.605 10.912 5.606 13.575 0 .058-.123 5.978-12.404 18.156-22.675 15.87-13.384 34.396-16.716 55.066-9.896 19.914 6.566 33.687 20.753 48.27 35.772 22.609 23.287 45.991 47.369 93.023 44.086 8.407-.572 12.933 9.903 7 15.786-21.905 21.715-61.892 47.601-127.996 47.601-30.728 0-55.748-8.329-74.362-24.755-13.888-12.254-18.887-24.742-18.924-24.835-2.406-6.309-11.636-6.309-14.042 0-.189.496-19.766 49.59-93.285 49.59-66.104 0-106.091-25.886-127.996-47.601-5.933-5.883-1.406-16.356 7-15.786 43.059 3.007 66.458-16.965 88.544-39.487 2.906-2.963 2.859-7.721-.104-10.627-2.962-2.903-7.721-2.859-10.627.105-20.274 20.672-40.037 37.566-76.769 35.016-10.151-.715-19.43 4.839-23.64 14.133-4.244 9.369-2.276 20.092 5.013 27.318 8.994 8.916 20.756 18.476 35.718 26.934-2.864 9.98-8.028 31.076-8.686 55.372-1.155 42.66 12.044 76.698 38.205 98.692.479 6.259 1.965 20.258 6.357 36.734 1.083 4.063 5.448 6.48 9.468 5.248 3.812-1.168 6.081-5.268 5.055-9.119-5.388-20.209-6.067-36.732-6.073-36.89-.08-2.211-1.132-4.276-2.874-5.641-24.374-19.108-36.188-48.923-35.114-88.617.561-20.739 4.612-38.862 7.317-48.836 20.28 9.259 45.377 16.2 76.088 17.753 5.7 15.876 16.111 28.664 31.044 38.047 19.754 12.411 47.469 18.704 82.376 18.704 34.906 0 62.549-6.294 82.162-18.708 14.818-9.379 25.081-22.157 30.602-38.016 31.005-1.486 56.318-8.453 76.741-17.776 1.884 6.957 4.423 17.875 5.98 30.857.488 4.065 4.291 7.055 8.356 6.566 4.066-.489 7.054-4.289 6.566-8.356-1.906-15.893-5.153-28.807-7.232-36.016 14.959-8.457 26.719-18.016 35.712-26.931 7.289-7.227 9.257-17.95 5.013-27.319zm-243.9 120.668c-51.514 0-84.089-13.932-97.059-41.43 41.561-.766 67.351-16.144 81.764-29.103 6.818-6.13 11.797-12.296 15.299-17.438 3.502 5.143 8.481 11.308 15.299 17.438 14.347 12.899 39.962 28.201 81.188 29.096-12.586 27.504-44.971 41.437-96.491 41.437z"/></svg>
