<?xml version="1.0" encoding="iso-8859-1"?>
<!-- Generator: Adobe Illustrator 19.0.0, SVG Export Plug-In . SVG Version: 6.00 Build 0)  -->
<svg version="1.1" id="Capa_1" xmlns="http://www.w3.org/2000/svg" xmlns:xlink="http://www.w3.org/1999/xlink" x="0px" y="0px"
	 viewBox="0 0 512.063 512.063" style="enable-background:new 0 0 512.063 512.063;" xml:space="preserve">
<g transform="translate(-1)">
	<g transform="translate(2 1)">
		<path style="fill:#607D8B;" d="M383.254,234.67l-22.528,26.709l-35.584,35.669c-11.349,11.349-22.841,22.556-34.475,33.621
			c-25.771,24.576-52.167,48.356-79.189,71.339C175.979,432.473,139.4,461.6,101.739,489.39l-2.389,1.792
			c-22.924,16.882-54.734,14.527-74.923-5.547c-1.792-1.833-3.473-3.77-5.035-5.803c-15.472-20.38-15.68-48.513-0.512-69.12
			l1.792-2.389c28.075-37.888,57.429-74.752,88.064-110.592c22.528-26.454,45.824-52.281,69.888-77.483
			c11.264-11.947,22.784-23.723,34.389-35.328l35.669-35.584l18.005-21.589l0.683-0.853L383.254,234.67z"/>
		<path style="fill:#CFD8DC;" d="M364.822,218.969l-22.528,26.709l-35.584,35.669c-11.349,11.349-22.841,22.556-34.475,33.621
			c-25.771,24.576-52.167,48.356-79.189,71.339c-35.499,30.464-72.078,59.591-109.739,87.381l-2.389,1.792
			c-17.95,13.202-41.896,14.896-61.525,4.352c-15.472-20.38-15.68-48.513-0.512-69.12l1.792-2.389
			c28.075-37.888,57.429-74.752,88.064-110.592c22.528-26.454,45.824-52.281,69.888-77.483
			c11.264-11.947,22.784-23.723,34.389-35.328l35.669-35.584l18.005-21.589L364.822,218.969z"/>
		<path style="fill:#AD1457;" d="M493.846,184.323l-84.053,84.139c-11.583,11.587-30.354,11.625-41.984,0.085l-0.085-0.085
			L241.601,142.339c-11.605-11.622-11.605-30.447,0-42.069l84.139-84.053c11.603-11.57,30.381-11.57,41.984,0l126.123,126.123
			c5.573,5.565,8.704,13.117,8.704,20.992C502.55,171.207,499.419,178.759,493.846,184.323z"/>
		<path style="fill:#E91E63;" d="M471.062,175.79l-84.053,84.139c-5.121,5.138-11.957,8.207-19.2,8.619l-0.085-0.085
			L241.601,142.339c-11.605-11.622-11.605-30.447,0-42.069l84.139-84.053c5.101-5.117,11.902-8.184,19.115-8.619l0.085,0.085
			l126.123,126.123c5.573,5.565,8.704,13.117,8.704,20.992S476.635,170.225,471.062,175.79z"/>
		<path style="fill:#607D8B;" d="M486.849,135.342l-49.067,48.981c-1.841,1.883-4.364,2.944-6.997,2.944
			c-2.634,0-5.156-1.061-6.997-2.944l-12.971-12.971l-85.077-85.077c-1.883-1.841-2.944-4.364-2.944-6.997
			c0-2.634,1.061-5.156,2.944-6.997l47.616-47.701l1.365-1.365L486.849,135.342z"/>
		<path style="fill:#CFD8DC;" d="M468.417,119.641l-49.067,48.981c-2.193,2.305-5.409,3.334-8.533,2.731l-85.077-85.077
			c-1.883-1.841-2.944-4.364-2.944-6.997c0-2.634,1.061-5.156,2.944-6.997l47.616-47.701L468.417,119.641z"/>
		<path style="fill:#AD1457;" d="M211.478,402.009C175.979,432.473,139.4,461.6,101.739,489.39l-2.389,1.792
			c-19.287,14.174-45.316,14.988-65.451,2.048c-3.419-2.186-6.595-4.732-9.472-7.595c-20.073-20.189-22.428-51.998-5.547-74.923
			l1.792-2.389c24.405-32.939,49.664-65.109,76.117-96.427c3.925-4.779,7.936-9.472,11.947-14.165
			c9.432,23.791,23.8,45.312,42.155,63.147C168.122,378.516,188.727,392.504,211.478,402.009z"/>

			<ellipse transform="matrix(-0.7071 -0.7071 0.7071 -0.7071 205.787 636.1321)" style="fill:#673AB7;" cx="234.641" cy="275.446" rx="29.722" ry="49.536"/>
		<path style="fill:#D1D4D1;" d="M87.488,431.104c-1.115-0.013-2.216-0.245-3.241-0.683c-2.055-0.911-3.697-2.553-4.608-4.608
			c-1.379-3.187-0.631-6.896,1.875-9.3c1.578-1.628,3.749-2.547,6.017-2.547c2.268,0,4.438,0.919,6.017,2.547
			c2.387,2.468,3.121,6.099,1.878,9.3c-0.446,1.023-1.084,1.951-1.879,2.733C91.951,430.176,89.768,431.098,87.488,431.104z"/>
		<path style="fill:#E91E63;" d="M188.694,393.475c-35.499,30.464-72.078,59.591-109.739,87.381l-2.389,1.792
			c-12.257,9.044-27.604,12.85-42.667,10.581c-3.419-2.186-6.595-4.732-9.472-7.595c-20.073-20.189-22.428-51.998-5.547-74.923
			l1.792-2.389c24.405-32.939,49.664-65.109,76.117-96.427c8.596,14.814,19.128,28.417,31.317,40.448
			C145.338,369.982,165.943,383.97,188.694,393.475z"/>
		<g>
			<path style="fill:#A5A5A4;" d="M374.721,87.813c-4.663-0.118-8.415-3.87-8.533-8.533c0.023-2.277,0.942-4.454,2.558-6.059
				c3.389-3.158,8.644-3.158,12.033,0c1.594,1.613,2.483,3.791,2.475,6.059c0.038,2.246-0.858,4.407-2.475,5.967
				C379.185,86.879,377.002,87.803,374.721,87.813z"/>
			<path style="fill:#A5A5A4;" d="M402.796,115.796c-2.27,0.024-4.455-0.867-6.06-2.473c-1.606-1.606-2.497-3.79-2.473-6.06
				c-0.007-2.266,0.881-4.444,2.471-6.059c0.786-0.769,1.714-1.378,2.733-1.792c2.635-1.101,5.645-0.816,8.026,0.76
				c2.381,1.576,3.82,4.235,3.837,7.09c-0.008,2.281-0.931,4.464-2.562,6.059C407.206,114.938,405.043,115.835,402.796,115.796z"/>
			<path style="fill:#A5A5A4;" d="M430.783,143.871c-4.699-0.033-8.501-3.834-8.533-8.533c0.001-2.265,0.89-4.44,2.475-6.059
				c3.421-3.158,8.695-3.158,12.117,0c1.571,1.627,2.457,3.796,2.475,6.059c0.008,2.243-0.884,4.395-2.475,5.975
				C435.246,142.943,433.064,143.864,430.783,143.871z"/>
		</g>
		<g>
			<path style="fill:#ECF0F1;" d="M332.713,185.879c-2.264,0.003-4.435-0.897-6.033-2.5l-35.025-35.025
				c-3.332-3.332-3.332-8.735,0-12.067c3.332-3.332,8.735-3.332,12.067,0l35.025,35.025c2.44,2.44,3.169,6.11,1.849,9.298
				C339.275,183.799,336.164,185.878,332.713,185.879L332.713,185.879z"/>
			<path style="fill:#ECF0F1;" d="M367.742,220.913c-2.265,0.003-4.438-0.897-6.038-2.5l-7.004-7.008
				c-3.3-3.34-3.283-8.718,0.038-12.036c3.321-3.319,8.699-3.332,12.036-0.03l7.004,7.008c2.438,2.442,3.166,6.111,1.845,9.299
				S371.192,220.911,367.742,220.913L367.742,220.913z"/>
		</g>
	</g>
	<g>
		<path d="M174.467,215.337l-0.012,0.009l-0.282,0.304c-11.802,12.354-23.535,24.995-35.199,37.924l-0.08,0.09
			c-11.624,12.89-23.095,25.977-34.413,39.26l-0.238,0.272l-0.012,0.02c-29.633,34.487-59.379,71.847-88.379,110.98l-1.842,2.458
			c-19.519,26.304-16.811,62.94,6.363,86.089c23.174,23.149,59.812,25.817,86.095,6.27l2.346-1.766
			c38.038-28.117,75.125-57.642,110.188-87.725c6.63-5.627,13.272-11.351,19.925-17.172c19.947-17.453,39.929-35.715,59.629-54.502
			l0.001-0.002l0.007-0.007c11.654-11.133,23.194-22.389,34.621-33.766l29.536-29.605l0.988,0.988
			c7.173,7.176,16.904,11.208,27.05,11.208c10.146,0,19.877-4.032,27.05-11.208l84.07-84.067c14.912-14.95,14.912-39.15,0-54.1
			l-7.008-7.008l0-0.001L382.783,18.188l-0.023-0.015l-6.985-6.985c-14.949-14.917-39.151-14.917-54.1,0l-84.067,84.066
			c-14.917,14.949-14.917,39.151,0,54.1l0.989,0.988l-29.618,29.545C196.166,192.701,184.865,204.314,174.467,215.337z
			 M98.625,483.554l-2.333,1.75c-19.489,14.463-46.63,12.477-63.806-4.669s-19.21-44.283-4.781-63.798l1.825-2.433
			c25.92-34.975,52.4-68.358,78.87-99.656c9.745,19.754,22.746,37.727,38.459,53.165c14.853,15.035,32.001,27.613,50.804,37.262
			C165.911,432.021,132.714,458.36,98.625,483.554L98.625,483.554z M476.771,136.313l-43,43.008c-0.542,0.529-1.408,0.529-1.95,0
			l-98.084-98.083c-0.259-0.258-0.404-0.609-0.4-0.975c-0.002-0.364,0.144-0.713,0.404-0.967l43.004-43.004L476.771,136.313z
			 M249.675,107.321l84.067-84.067c8.283-8.256,21.684-8.256,29.967,0l0.971,0.971l-43.001,43.004
			c-3.462,3.455-5.408,8.145-5.408,13.037c-0.001,4.891,1.943,9.582,5.404,13.038l98.079,98.083h0.004
			c7.205,7.189,18.87,7.189,26.075,0l43.004-43.008l0.975,0.975c8.258,8.282,8.258,21.685,0,29.967l-84.071,84.067
			c-8.389,7.996-21.578,7.996-29.967,0l-6.967-6.967l-0.049-0.074L256.716,144.304l-0.074-0.049l-6.967-6.967
			C241.412,129.007,241.412,115.601,249.675,107.321z M250.663,162.408l99.99,99.99l-29.544,29.615
			c-11.304,11.3-22.747,22.461-34.329,33.483c-6.327,6.034-12.68,12.008-19.059,17.921c-2.415,2.241-4.841,4.428-7.26,6.65
			c-3.986,3.66-7.97,7.331-11.965,10.935c-2.679,2.418-5.361,4.777-8.042,7.167c-3.77,3.362-7.541,6.737-11.312,10.044
			c-2.643,2.317-5.281,4.577-7.922,6.865c-3.106,2.691-6.211,5.377-9.314,8.026c-19.796-9.078-37.757-21.712-52.992-37.275
			c-16.194-15.85-29.202-34.655-38.32-55.4c6.733-7.861,13.592-15.591,20.447-23.327c3.852-4.345,7.628-8.776,11.51-13.075
			c11.334-12.547,22.762-24.855,34.283-36.924c10.329-10.958,21.521-22.45,34.204-35.142L250.663,162.408z"/>
		<path d="M376.721,88.813c2.282-0.009,4.465-0.934,6.059-2.567c1.616-1.56,2.513-3.721,2.475-5.967
			c0.009-2.267-0.881-4.446-2.475-6.059c-3.389-3.158-8.644-3.158-12.033,0c-1.616,1.604-2.536,3.781-2.558,6.059
			C368.306,84.942,372.058,88.694,376.721,88.813L376.721,88.813z"/>
		<path d="M404.796,116.796c2.247,0.039,4.41-0.857,5.971-2.475c1.631-1.595,2.554-3.777,2.562-6.059
			c-0.017-2.855-1.456-5.514-3.837-7.09c-2.381-1.576-5.391-1.861-8.026-0.76c-1.019,0.414-1.947,1.023-2.733,1.792
			c-1.59,1.615-2.478,3.792-2.471,6.059c-0.024,2.27,0.867,4.455,2.473,6.06C400.341,115.929,402.525,116.821,404.796,116.796
			L404.796,116.796z"/>
		<path d="M432.783,144.871c2.281-0.006,4.464-0.928,6.059-2.558c1.591-1.58,2.482-3.732,2.475-5.975
			c-0.017-2.262-0.903-4.431-2.475-6.059c-3.421-3.158-8.695-3.158-12.117,0c-3.3,3.332-3.3,8.701,0,12.033
			C428.32,143.943,430.503,144.864,432.783,144.871z"/>
		<path d="M328.679,184.379c3.332,3.332,8.735,3.332,12.067,0c3.332-3.332,3.332-8.735,0-12.067l-35.025-35.025
			c-3.332-3.332-8.735-3.332-12.067,0c-3.332,3.332-3.332,8.735,0,12.067L328.679,184.379z"/>
		<path d="M363.704,219.413c3.338,3.302,8.715,3.289,12.036-0.03c3.321-3.319,3.338-8.697,0.038-12.036l-7.004-7.008
			c-3.338-3.302-8.715-3.289-12.036,0.03c-3.321,3.319-3.338,8.697-0.038,12.036L363.704,219.413z"/>
		<path d="M217.283,325.838c3.884-0.03,7.75-0.533,11.512-1.5c13.275-3.732,25.317-10.931,34.887-20.858
			c23.025-23.033,29.179-52.95,14.013-68.117c-15.179-15.158-45.087-9.008-68.112,14.017c-9.927,9.569-17.126,21.61-20.858,34.883
			c-3.867,11.5-1.251,24.192,6.85,33.225C201.383,323.094,209.215,326.107,217.283,325.838z M205.283,288.404
			c3.012-10.259,8.654-19.553,16.367-26.958c8.813-9.851,21-16.039,34.154-17.342c3.586-0.234,7.118,0.962,9.825,3.325
			c7.088,7.083,3.075,26.892-14.012,43.983c-7.406,7.712-16.699,13.355-26.958,16.367c-5.705,2.152-12.112,1.264-17.017-2.358
			C204.008,300.521,203.12,294.108,205.283,288.404z"/>
		<path d="M92.817,415.638c-3.198-1.279-6.851-0.543-9.304,1.875c-2.506,2.404-3.254,6.113-1.875,9.3
			c0.911,2.055,2.553,3.697,4.608,4.608c3.187,1.379,6.896,0.631,9.3-1.875c0.795-0.782,1.433-1.71,1.879-2.733
			c1.242-3.201,0.509-6.832-1.879-9.3C94.765,416.718,93.838,416.082,92.817,415.638z"/>
	</g>
</g>
<g>
</g>
<g>
</g>
<g>
</g>
<g>
</g>
<g>
</g>
<g>
</g>
<g>
</g>
<g>
</g>
<g>
</g>
<g>
</g>
<g>
</g>
<g>
</g>
<g>
</g>
<g>
</g>
<g>
</g>
</svg>
