<svg height="512" viewBox="0 0 128 128" width="512" xmlns="http://www.w3.org/2000/svg"><g><g><path d="m99.324 34.666-5.4-4.923h-13.5l-5.395 4.923a50.744 50.744 0 0 0 -16.538 37.486v31.278a8.624 8.624 0 0 1 .5 8.723 8.644 8.644 0 0 1 5.021 14.1h46.855a5 5 0 0 0 5-5v-49.1a50.748 50.748 0 0 0 -16.543-37.487z" fill="#5a5a5a"/><path d="m56.189 20.388a31.137 31.137 0 0 1 23.437-10.636h21.047a4 4 0 0 0 4-4 4 4 0 0 0 -4-4h-21.047a39.14 39.14 0 0 0 -29.459 13.369z" fill="#ffda2d"/><path d="m80.428 9.752h13.5v19.812h-13.5z" fill="#00ccb2" transform="matrix(-1 0 0 -1 174.356 39.315)"/><path d="m68.491 72.153h37.375v44.096h-37.375z" fill="#444"/><path d="m64.011 126.248a8.644 8.644 0 0 0 -5.021-14.095 8.643 8.643 0 0 0 -7.7-12.584h-.921c-2.888-11.53-13.8-14.63-13.8-14.63 1.5 4.121-2.073 10.611-4.737 14.63h-3.388a8.639 8.639 0 0 0 -7.773 12.44 8.645 8.645 0 0 0 -6.482 14.239z" fill="#fed2a4"/><path d="m51.985 113.9h-12.885a1.75 1.75 0 0 1 0-3.5h12.885a1.75 1.75 0 0 1 0 3.5z" fill="#ffbd86"/></g><g><path d="m89.75 70.4h-4.875a1.75 1.75 0 0 0 0 3.5h4.875a1.75 1.75 0 0 0 0-3.5z"/><path d="m100.5 33.373-4.825-4.4v-17.473h5a5.75 5.75 0 0 0 0-11.5h-21.049a40.666 40.666 0 0 0 -16 3.258 1.75 1.75 0 0 0 1.374 3.222 37.194 37.194 0 0 1 14.626-2.98h21.047a2.25 2.25 0 0 1 0 4.5h-21.047a32.885 32.885 0 0 0 -23.567 9.95l-3.391-2.967a37.432 37.432 0 0 1 4.693-4.13 1.75 1.75 0 0 0 -2.085-2.811 40.981 40.981 0 0 0 -6.426 5.927 1.752 1.752 0 0 0 .165 2.47l6.022 5.267a1.753 1.753 0 0 0 1.152.433h.117a1.75 1.75 0 0 0 1.2-.594 29.379 29.379 0 0 1 21.172-10.017v17.442l-4.825 4.4a52.61 52.61 0 0 0 -17.112 38.782v27.226a10.324 10.324 0 0 0 -5.049-1.551c-3.546-11.3-14.18-14.438-14.648-14.571a1.75 1.75 0 0 0 -2.123 2.281c.883 2.428-.588 6.876-4.041 12.282h-2.436a10.416 10.416 0 0 0 -10.4 10.405 10.257 10.257 0 0 0 .267 2.336 10.391 10.391 0 0 0 -5.453 16.82 1.75 1.75 0 0 0 1.332.62h96.676a6.758 6.758 0 0 0 6.75-6.75v-49.1a52.61 52.61 0 0 0 -17.116-38.777zm-8.322-21.873v16.314h-10v-16.314zm-78.294 109.157a6.928 6.928 0 0 1 6.811-6.9 1.75 1.75 0 0 0 1.549-2.518 6.82 6.82 0 0 1 -.7-3.017 6.912 6.912 0 0 1 6.9-6.905h3.386a1.751 1.751 0 0 0 1.459-.783c3.4-5.125 5.192-9.422 5.371-12.831a18.994 18.994 0 0 1 10.008 12.291 1.75 1.75 0 0 0 1.7 1.325h.921a6.913 6.913 0 0 1 6.9 6.905 6.783 6.783 0 0 1 -.366 2.179h-18.723a1.75 1.75 0 0 0 0 3.5h19.678a6.884 6.884 0 0 1 4.365 10.6h-48.086a6.9 6.9 0 0 1 -1.173-3.846zm100.232.591a3.254 3.254 0 0 1 -3.25 3.25h-43.8a10.319 10.319 0 0 0 .278-6.936 1.736 1.736 0 0 0 1.145.436h37.375a1.75 1.75 0 0 0 1.75-1.75v-44.1a1.75 1.75 0 0 0 -1.75-1.75h-3.929a1.75 1.75 0 0 0 0 3.5h2.179v40.6h-33.873v-40.598h2.447a1.75 1.75 0 0 0 0-3.5h-4.2a1.749 1.749 0 0 0 -1.75 1.75v43.9a10.405 10.405 0 0 0 -5.431-5.042 10.341 10.341 0 0 0 -1.069-8.062v-30.8a49.1 49.1 0 0 1 15.974-36.187l4.894-4.466h12.144l4.894 4.466a49.1 49.1 0 0 1 15.972 36.193z"/></g></g></svg>
