<svg id="Layer_1_1_" enable-background="new 0 0 64 64" height="512" viewBox="0 0 64 64" width="512" xmlns="http://www.w3.org/2000/svg"><g><path d="m3 12v5c0 1.105.895 2 2 2h4.658c8.866 0 17.703-1.006 26.342-3v-6" fill="#e2e7f6"/><path d="m4 15c0 1.105.895 2 2 2h4.658c8.525 0 17.021-.94 25.342-2.784v-4.216l-32 1.939z" fill="#c8cded"/><path d="m50 10-6.123-1.361c-1.912-.425-3.865-.639-5.824-.639-1.367 0-2.731.104-4.082.312l-.011.002c-7.296 1.122-14.667 1.686-22.049 1.686h-9.911v3h11.909c7.379 0 14.743-.664 22.003-1.984l.088-.016v6l1.632-.544c.817-.272 1.368-1.037 1.368-1.898v-3.558c2.66 0 5.314.263 7.922.784l1.078.216h1" fill="#787faa"/><g><path d="m56.395 12h-2.395v-2h2.395c1.922 0 3.707-.955 4.773-2.555l1.664 1.109c-1.438 2.158-3.845 3.446-6.437 3.446z" fill="#787faa"/></g><path d="m52.482 7c1.391 0 2.518 1.127 2.518 2.518 0 .977-.205 1.943-.602 2.836l-1.722 3.875c-3.761 8.463-8.808 16.294-14.961 23.216-4.463 5.021-9.474 9.525-14.94 13.429l-4.59 3.279c-.771.551-1.694.847-2.641.847-2.51 0-4.544-2.034-4.544-4.544v-.288c0-1.371.619-2.669 1.685-3.532l9.049-7.325c6.827-5.527 13.08-11.727 18.663-18.507 3.728-4.526 7.036-9.383 9.883-14.508.445-.8 1.287-1.296 2.202-1.296z" fill="#f6b940"/><path d="m53.531 7.235c-.32-.147-.673-.235-1.049-.235-.915 0-1.757.496-2.201 1.295-2.848 5.126-6.156 9.982-9.883 14.508-5.584 6.78-11.836 12.981-18.663 18.507l-9.049 7.325c-1.067.864-1.686 2.162-1.686 3.533v.288c0 .519.105 1.009.265 1.473 17.038-12.587 31.407-28.459 42.266-46.694z" fill="#fad85d"/><g><path d="m51 10h2v2h-2z" fill="#787faa"/></g><circle cx="16" cy="52" fill="#787faa" r="2"/><path d="m39 8.153v-.127c-.316-.011-.631-.026-.947-.026-1.367 0-2.731.104-4.082.312l-.011.002c-7.296 1.122-14.667 1.686-22.049 1.686h-9.911v1h16.773c5.475 0 10.941-.452 16.342-1.353l3.049-.508c.483-.08.836-.497.836-.986z" fill="#c8cded"/><path d="m56.395 10h-.419c.009-.16.024-.32.024-.481 0-1.941-1.578-3.519-3.518-3.519-1.276 0-2.455.693-3.076 1.81-.171.309-.361.608-.536.915l-4.777-1.061c-3.362-.746-6.856-.864-10.286-.339-7.219 1.112-14.586 1.675-21.895 1.675h-9.912c-.552 0-1 .447-1 1v3c0 .553.448 1 1 1v3c0 1.654 1.346 3 3 3h4.658c8.519 0 17.046-.937 25.37-2.767.055.23.191.437.387.579.173.124.378.188.585.188.106 0 .213-.017.316-.052l1.633-.544c1.227-.409 2.051-1.552 2.051-2.845v-2.546c2.166.055 4.332.294 6.458.704-2.091 3.283-4.366 6.454-6.833 9.451-5.53 6.715-11.761 12.894-18.521 18.365l-9.048 7.325c-1.306 1.059-2.056 2.629-2.056 4.31v.288c0 3.057 2.487 5.544 5.544 5.544 1.162 0 2.276-.357 3.222-1.033l4.59-3.278c5.518-3.94 10.601-8.51 15.107-13.579 6.229-7.008 11.319-14.906 15.126-23.475l1.723-3.875c.111-.25.207-.503.291-.76h.791c2.593 0 4.999-1.288 6.438-3.445l-1.664-1.109c-1.066 1.599-2.851 2.554-4.773 2.554zm-51.395 8c-.551 0-1-.448-1-1v-3h9.909c7.026 0 14.091-.604 21.091-1.808v3c-8.31 1.858-16.83 2.808-25.342 2.808zm42.119-7.196c-2.668-.533-5.399-.804-8.119-.804-.552 0-1 .447-1 1v3.559c0 .431-.275.812-.684.949l-.316.104v-4.612c0-.297-.176-.57-.403-.76-.228-.19-.571-.263-.863-.208-7.183 1.306-14.525 1.968-21.825 1.968h-10.909v-1h8.912c7.411 0 14.88-.571 22.211-1.699 3.156-.484 6.415-.379 9.537.315l4.148.922c-.072.12-.139.242-.212.362zm6.366 1.144-1.723 3.874c-3.724 8.38-8.701 16.104-14.794 22.959-4.407 4.958-9.378 9.426-14.774 13.28l-4.59 3.278c-.605.432-1.317.66-2.06.66-1.954.001-3.544-1.589-3.544-3.543v-.288c0-1.074.479-2.078 1.314-2.755l9.048-7.325c6.864-5.556 13.191-11.83 18.806-18.648 3.756-4.562 7.116-9.493 9.985-14.658.269-.483.778-.782 1.329-.782.837 0 1.518.682 1.518 1.519 0 .841-.173 1.659-.515 2.429z"/><path d="m51 10h2v2h-2z"/><path d="m16 49c-1.654 0-3 1.346-3 3s1.346 3 3 3 3-1.346 3-3-1.346-3-3-3zm0 4c-.551 0-1-.448-1-1s.449-1 1-1 1 .448 1 1-.449 1-1 1z"/></g></svg>
