<svg id="_x33_0" enable-background="new 0 0 64 64" height="512" viewBox="0 0 64 64" width="512" xmlns="http://www.w3.org/2000/svg"><g><g><g><path d="m32 37c-1.654 0-3-1.346-3-3s1.346-3 3-3 3 1.346 3 3-1.346 3-3 3z" fill="#f0bc5e"/></g></g><g><path d="m11.799 2.877c-.015-.016-.033-.027-.048-.042l-3.067 3.066 13.721 18.565c1.125 1.521 2.851 2.475 4.738 2.615.162.012.324.018.485.018 1.699 0 3.334-.668 4.553-1.869z" fill="#f0bc5e"/></g><g><path d="m47 47c-3.309 0-6 2.691-6 6s2.691 6 6 6 6-2.691 6-6-2.691-6-6-6zm0 10c-2.206 0-4-1.794-4-4s1.794-4 4-4 4 1.794 4 4-1.794 4-4 4z"/><path d="m17 47c-3.309 0-6 2.691-6 6s2.691 6 6 6 6-2.691 6-6-2.691-6-6-6zm0 10c-2.206 0-4-1.794-4-4s1.794-4 4-4 4 1.794 4 4-1.794 4-4 4z"/><path d="m61.622 58.771-4.433-1.773c-.476-.19-.723-.723-.575-1.238.38-1.328.48-2.708.298-4.104-.592-4.528-4.442-8.159-9.153-8.632-1.423-.143-2.75-.865-3.643-1.98l-.24-.3c-.565-.706-.876-1.593-.876-2.498v-1.472c0-.75-.278-1.467-.783-2.021l-1.547-1.697 13.994-21.69c.874-1.354 1.336-2.925 1.336-4.538 0-2.092-.814-4.058-2.293-5.535l-.783-.783-19.776 24.297-20.61-22.604c-1.188-1.304-3.298-1.563-4.769-.584l-1.207.804c-.978.653-1.562 1.745-1.562 2.92 0 .602.156 1.196.451 1.721l16.738 29.756c.158.28.344.537.547.777l-2.86 3.513c-.874 1.073-2.166 1.768-3.543 1.905-4.714.47-8.596 4.056-9.23 8.527-.456 3.218.603 6.354 2.903 8.605 1.896 1.854 4.375 2.853 6.987 2.853.56 0 1.126-.046 1.693-.14 1.627-.268 3.182-.958 4.495-1.995.404-.32.978-.293 1.334.064l1.156 1.155c.59.592 1.374.916 2.208.916 1.721 0 3.121-1.4 3.121-3.121 0-.807-.29-1.587-.816-2.198l-2.338-2.711c-.66-.767-.828-1.705-.853-2.357-.065-1.696-.564-3.357-1.444-4.803-.67-1.101-.582-2.734.196-3.643l.919-1.072c1.141-1.331 2.801-2.095 4.556-2.095h2.69c.03 0 .058-.005.088-.006 1.561.659 2.966 1.667 4.081 2.969l.173.2c.758.885.91 2.531.319 3.454-1.274 1.992-1.799 4.399-1.476 6.777.587 4.326 4.004 7.813 8.31 8.481.527.083 1.064.125 1.595.125h13.808c1.209 0 2.192-.983 2.192-2.192 0-.903-.541-1.703-1.378-2.037zm-8.613-55.198c.644.954.991 2.078.991 3.255 0 1.229-.352 2.423-1.018 3.455l-13.706 21.245-4.766-5.227zm-27.863 38.221-.919 1.072c-1.342 1.565-1.509 4.138-.387 5.982.704 1.156 1.103 2.483 1.154 3.84.053 1.394.516 2.634 1.337 3.587l2.337 2.711c.214.248.332.566.332.893 0 .618-.503 1.121-1.121 1.121-.3 0-.581-.116-.793-.328l-1.155-1.155c-1.072-1.072-2.787-1.169-3.988-.22-1.048.828-2.286 1.379-3.58 1.592-2.577.42-5.115-.368-6.957-2.17s-2.688-4.314-2.322-6.895c.506-3.571 3.639-6.439 7.448-6.818 1.904-.19 3.689-1.15 4.896-2.634l2.88-3.538c.442.221.916.383 1.418.467l2.278.38c-1.087.477-2.068 1.19-2.858 2.113zm35.662 19.206h-13.808c-.428 0-.861-.034-1.288-.101-3.438-.533-6.167-3.318-6.636-6.774-.263-1.936.146-3.813 1.179-5.43 1.064-1.662.847-4.279-.486-5.835l-.173-.2c-1.982-2.313-4.729-3.863-7.733-4.363l-5.811-.969c-.9-.149-1.673-.691-2.121-1.488l-16.737-29.757c-.127-.226-.194-.481-.194-.74 0-.506.251-.976.672-1.256l1.206-.804c.278-.185.601-.283.935-.283.473 0 .928.201 1.247.551l2.372 2.602-2.73 2.73 1.414 1.414 2.665-2.665 1.036 1.136-2.99 2.99 1.414 1.414 2.924-2.924 1.036 1.136-3.249 3.249 1.414 1.414 3.184-3.184 1.036 1.136-3.509 3.509 1.414 1.414 3.444-3.443 1.036 1.136-3.769 3.768 1.414 1.414 3.704-3.703 1.036 1.136-4.029 4.029 1.414 1.414 3.963-3.964 1.036 1.136-3.85 3.849 1.414 1.414 3.784-3.784 11.65 12.777c.169.185.262.423.262.673v1.472c0 1.358.467 2.689 1.314 3.747l.239.3c1.227 1.533 3.051 2.525 5.005 2.722 3.798.381 6.897 3.283 7.37 6.901.147 1.122.067 2.229-.237 3.293-.432 1.506.322 3.073 1.754 3.646l4.434 1.773c.073.029.12.1.12.179.001.107-.085.193-.191.193z"/></g></g></svg>
